#!OML:ASF E:\VariousWalksJay\Project 1\Capture day 1\Session 1\Actor2.ASF
:FULLY-SPECIFIED
:DEGREES
1038
root -11.0435 15.3615 31.7942 10.8375 -26.3588 -10.4526
lowerback 4.9582 -2.88414 6.85334
upperback 11.5649 -4.12386 0.334542
thorax 9.09653 -1.53891 -3.57113
lowerneck 5.34717 0.334303 -1.21791
upperneck 8.64022 -0.0148355 5.51222
head 1.81111 0.000930045 1.95635
rclavicle 4.69132e-014 -1.03368e-014
rhumerus -35.2077 19.9092 -87.5902
rradius 72.0958
rwrist 0.437924
rhand -24.6524 -12.2148
rfingers 7.12502
rthumb 1.8473 -42.1865
lclavicle 4.69132e-014 -1.03368e-014
lhumerus 17.6271 -34.8974 66.2099
lradius 64.8116
lwrist 66.6514
lhand -36.533 15.1517
lfingers 7.12502
lthumb -9.62411 44.9119
rfemur -5.52177 -7.61055 30.4873
rtibia 55.1101
rfoot -32.9784 -8.55222
rtoes -30.6696
lfemur -52.0375 4.04408 -12.3701
ltibia 39.6485
lfoot 0.0653242 1.95343
ltoes -11.6664
1039
root -11.06 15.3466 31.8881 11.4187 -26.4007 -10.5454
lowerback 5.2347 -2.85165 6.79
upperback 11.6762 -4.06024 0.269345
thorax 9.06773 -1.51041 -3.59262
lowerneck 5.52283 0.33009 -1.20215
upperneck 7.79246 0.0119274 5.79382
head 1.50754 0.00672661 2.03603
rclavicle 1.59028e-014 -3.89618e-014
rhumerus -34.8592 19.6944 -87.5679
rradius 72.2466
rwrist 0.553247
rhand -24.6958 -12.1436
rfingers 7.12502
rthumb 1.80539 -42.1157
lclavicle 1.59028e-014 -3.89618e-014
lhumerus 18.5625 -34.7418 65.3124
lradius 65.159
lwrist 66.6545
lhand -36.5853 15.2748
lfingers 7.12502
lthumb -9.67456 45.0327
rfemur -5.67246 -7.43235 30.4922
rtibia 54.9546
rfoot -33.0156 -8.61611
rtoes -31.089
lfemur -52.8588 4.62775 -12.6483
ltibia 40.4339
lfoot 0.703532 1.40198
ltoes -10.4087
1040
root -11.076 15.3299 31.981 12.0149 -26.4334 -10.6359
lowerback 5.47779 -2.81633 6.74843
upperback 11.7803 -3.99436 0.187392
thorax 9.04866 -1.47744 -3.64603
lowerneck 5.69977 0.327528 -1.19337
upperneck 6.98446 0.0409553 6.10054
head 1.21906 0.0116716 2.12705
rclavicle 7.63333e-014 -2.46493e-014
rhumerus -34.4908 19.4516 -87.571
rradius 72.3518
rwrist 0.66191
rhand -24.7323 -12.1129
rfingers 7.12502
rthumb 1.77015 -42.0853
lclavicle 7.63333e-014 -2.46493e-014
lhumerus 19.5044 -34.5436 64.4436
lradius 65.4425
lwrist 66.6316
lhand -36.6098 15.4464
lfingers 7.12502
lthumb -9.69816 45.2031
rfemur -5.85046 -7.27227 30.4923
rtibia 54.8146
rfoot -33.0625 -8.67323
rtoes -31.5055
lfemur -53.7488 5.16323 -12.9179
ltibia 41.3059
lfoot 1.206 0.837943
ltoes -8.8755
1041
root -11.091 15.3121 32.072 12.6098 -26.4558 -10.7208
lowerback 5.72118 -2.78209 6.71604
upperback 11.8752 -3.92878 0.0954356
thorax 9.0182 -1.44372 -3.71519
lowerneck 5.86622 0.33096 -1.19008
upperneck 6.22607 0.078272 6.41851
head 0.949339 0.0190972 2.22482
rclavicle 7.15625e-014 -4.85035e-014
rhumerus -34.1078 19.1868 -87.5944
rradius 72.4092
rwrist 0.752295
rhand -24.7501 -12.123
rfingers 7.12502
rthumb 1.75295 -42.0956
lclavicle 7.15625e-014 -4.85035e-014
lhumerus 20.4249 -34.2996 63.6375
lradius 65.6649
lwrist 66.585
lhand -36.631 15.6165
lfingers 7.12502
lthumb -9.71868 45.3723
rfemur -6.05791 -7.14768 30.478
rtibia 54.7124
rfoot -33.102 -8.71178
rtoes -31.9027
lfemur -54.675 5.61309 -13.1532
ltibia 42.2445
lfoot 1.56377 0.297499
ltoes -7.25246
1042
root -11.1048 15.2937 32.1602 13.1753 -26.4871 -10.7747
lowerback 5.99316 -2.74359 6.6543
upperback 11.9647 -3.85429 -0.00990052
thorax 8.9666 -1.40837 -3.78097
lowerneck 6.01665 0.340759 -1.18192
upperneck 5.51961 0.124781 6.74082
head 0.698937 0.0299734 2.32515
rclavicle 3.65764e-014 -2.8625e-014
rhumerus -33.7286 18.8949 -87.6317
rradius 72.4509
rwrist 0.815636
rhand -24.755 -12.1631
rfingers 7.12502
rthumb 1.74815 -42.1357
lclavicle 3.65764e-014 -2.8625e-014
lhumerus 21.327 -34.0188 62.8886
lradius 65.8289
lwrist 66.5128
lhand -36.6463 15.7557
lfingers 7.12502
lthumb -9.73342 45.5108
rfemur -6.29043 -7.05284 30.4198
rtibia 54.6644
rfoot -33.1252 -8.71713
rtoes -32.2452
lfemur -55.5948 5.96407 -13.3563
ltibia 43.2178
lfoot 1.78745 -0.199656
ltoes -5.69002
1043
root -11.1174 15.2754 32.2451 13.697 -26.5266 -10.8057
lowerback 6.31382 -2.69903 6.55682
upperback 12.0551 -3.76849 -0.119061
thorax 8.89058 -1.37145 -3.8289
lowerneck 6.13977 0.353 -1.17921
upperneck 4.86981 0.174113 7.06892
head 0.47077 0.0415145 2.43031
rclavicle 1.35174e-014 -6.67916e-014
rhumerus -33.344 18.5848 -87.6724
rradius 72.4706
rwrist 0.841756
rhand -24.759 -12.1968
rfingers 7.12502
rthumb 1.74437 -42.1694
lclavicle 1.35174e-014 -6.67916e-014
lhumerus 22.2107 -33.7091 62.2089
lradius 65.9368
lwrist 66.4139
lhand -36.6699 15.8647
lfingers 7.12502
lthumb -9.75613 45.6187
rfemur -6.5339 -6.99604 30.3242
rtibia 54.6744
rfoot -33.1245 -8.68639
rtoes -32.5212
lfemur -56.4661 6.20979 -13.5049
ltibia 44.1917
lfoot 1.909 -0.649118
ltoes -4.42875
1044
root -11.1292 15.2584 32.3266 14.1627 -26.5889 -10.7975
lowerback 6.67818 -2.63968 6.40299
upperback 12.1513 -3.66131 -0.233417
thorax 8.80049 -1.32922 -3.84972
lowerneck 6.23972 0.362322 -1.176
upperneck 4.2656 0.220081 7.39256
head 0.260509 0.0508178 2.53563
rclavicle 5.24792e-014 -4.77083e-015
rhumerus -32.9566 18.2436 -87.7134
rradius 72.4833
rwrist 0.845398
rhand -24.7646 -12.2208
rfingers 7.12502
rthumb 1.73895 -42.1935
lclavicle 5.24792e-014 -4.77083e-015
lhumerus 23.0888 -33.3929 61.5914
lradius 65.9896
lwrist 66.3011
lhand -36.7265 15.8908
lfingers 7.12502
lthumb -9.81076 45.6423
rfemur -6.77953 -6.96899 30.1727
rtibia 54.7354
rfoot -33.096 -8.61825
rtoes -32.7322
lfemur -57.2575 6.35352 -13.6065
ltibia 45.1334
lfoot 1.95575 -1.05456
ltoes -3.44765
